# xmcd
#
# Track frame offsets:
#	150
#	19191
#	40856
#	61066
#	90124
#	109593
#	129097
#	146932
#	168742
#	192604
#	208966
#
# Disc length: 3426 seconds
#
# Revision: 11
# Processed by: cddbd v1.5.2PL0 Copyright (c) Steve Scherf et al.
# Submitted via: Jack! The Knife 20 Magnifico
#
DISCID=980d600b
DTITLE=Running Wild - Rogues En Vogue
DYEAR=2005
DGENRE=Metal
TTITLE0=Draw The Line
TTITLE1=Angel Of Mercy
TTITLE2=Skeleton Dance
TTITLE3=Skulls and Bones
TTITLE4=Born Bad, Dying Worse
TTITLE5=Black Gold
TTITLE6=Soul Vampires
TTITLE7=Rogues En Vogue
TTITLE8=Winged and Feathered
TTITLE9=Dead Man's Road
TTITLE10=The War
EXTD=Running Wild
EXTT0=Rolf Kasparek
EXTT1=Rolf Kasparek
EXTT2=Rolf Kasparek
EXTT3=Rolf Kasparek
EXTT4=Rolf Kasparek
EXTT5=Rolf Kasparek
EXTT6=Rolf Kasparek
EXTT7=Rolf Kasparek
EXTT8=Rolf Kasparek
EXTT9=Rolf Kasparek
EXTT10=Rolf Kasparek
PLAYORDER=
